<?xml version="1.0" encoding="utf-8"?><!DOCTYPE svg [<!ENTITY ns_flows "http://ns.adobe.com/Flows/1.0/">]><svg version="1.2" baseProfile="tiny" xmlns="http://www.w3.org/2000/svg" xmlns:xlink="http://www.w3.org/1999/xlink" xmlns:a="http://ns.adobe.com/AdobeSVGViewerExtensions/3.0/" x="0px" y="0px" width="91px" height="91px" viewBox="-0.5 -0.5 91 91" xml:space="preserve"><defs></defs><path fill="#72aee6" d="M85.646,40.645c-2.404,0-4.355,1.952-4.355,4.355c0,20.013-16.277,36.29-36.29,36.29C24.988,81.29,8.709,65.013,8.709,45C8.709,24.988,24.988,8.709,45,8.709c2.404,0,4.354-1.951,4.354-4.354S47.404,0,45,0C20.187,0,0,20.187,0,45c0,24.814,20.187,45,45,45c24.814,0,45-20.186,45-45C90,42.597,88.049,40.645,85.646,40.645z"/><path fill="#72aee6" d="M47.32,30.624c-1.236,1.805-1.923,3.809-2.393,5.675c-4.776,0.041-8.637,3.92-8.637,8.701c0,4.807,3.902,8.71,8.709,8.71c4.807,0,8.71-3.903,8.71-8.71c0-1.158-0.238-2.259-0.648-3.272c1.543-1.149,3.128-2.555,4.324-4.396c1.291-2.083,1.925-4.808,3.094-7.177c1.119-2.398,2.284-4.771,3.236-7.078c1.006-2.279,1.877-4.45,2.631-6.309c1.487-3.725,2.361-6.286,2.361-6.286c0.067-0.197,0.032-0.424-0.116-0.592c-0.221-0.25-0.602-0.273-0.848-0.056c0,0-2.026,1.794-4.897,4.602c-1.423,1.408-3.092,3.052-4.811,4.854c-1.767,1.769-3.504,3.757-5.291,5.713C51.019,26.994,48.748,28.626,47.32,30.624z"/></svg>